<svg width="78.000000" height="64.000000" viewBox="0 0 78 64" fill="none" xmlns="http://www.w3.org/2000/svg" xmlns:xlink="http://www.w3.org/1999/xlink">
	<desc>
			Created with Pixso.
	</desc>
	<defs>
		<clipPath id="clip251_763">
			<rect id="Icon" width="24.000000" height="24.000000" transform="matrix(1 0 0 -1 28 34)" fill="white" fill-opacity="0"/>
		</clipPath>
	</defs>
	<path id="Войти" d="M28.13 48.5L25.24 48.5L25.24 40.49L28.04 40.49C29.71 40.49 30.49 41.45 30.49 42.62C30.49 43.65 29.88 44.1 29.19 44.29L29.19 44.37C29.93 44.42 30.8 45.1 30.8 46.37C30.8 47.57 30.02 48.5 28.13 48.5ZM41.87 41.26C42.42 41.26 42.64 40.9 42.64 40.49L43.5 40.49C43.5 41.34 42.87 41.93 41.87 41.93C40.88 41.93 40.26 41.34 40.26 40.49L41.12 40.49C41.12 40.9 41.32 41.26 41.87 41.26ZM26.21 41.35L26.21 44.01L28.01 44.01C28.88 44.01 29.57 43.47 29.57 42.62C29.57 41.92 29.1 41.35 28.04 41.35L26.21 41.35ZM37.73 45.53C37.73 47.39 36.63 48.62 35.01 48.62C33.38 48.62 32.29 47.39 32.29 45.53C32.29 43.65 33.38 42.42 35.01 42.42C36.63 42.42 37.73 43.65 37.73 45.53ZM40.35 42.5L40.35 47.14L43.25 42.5L44.31 42.5L44.31 48.5L43.39 48.5L43.39 43.85L40.51 48.5L39.43 48.5L39.43 42.5L40.35 42.5ZM47.47 43.35L45.48 43.35L45.48 42.5L50.36 42.5L50.36 43.35L48.39 43.35L48.39 48.5L47.47 48.5L47.47 43.35ZM52.92 42.5L52.92 47.14L55.81 42.5L56.88 42.5L56.88 48.5L55.95 48.5L55.95 43.85L53.08 48.5L52 48.5L52 42.5L52.92 42.5ZM33.21 45.53C33.21 46.73 33.77 47.79 35.01 47.79C36.24 47.79 36.8 46.73 36.8 45.53C36.8 44.32 36.24 43.24 35.01 43.24C33.77 43.24 33.21 44.32 33.21 45.53ZM26.21 44.85L26.21 47.64L28.13 47.64C29.39 47.64 29.88 47.07 29.88 46.37C29.88 45.56 29.22 44.85 28.18 44.85L26.21 44.85Z" fill="#000000" fill-opacity="1.000000" fill-rule="evenodd"/>
	<g clip-path="url(#clip251_763)">
		<path id="Vector" d="M40 21.98C40.91 21.98 41.75 21.76 42.51 21.31C43.27 20.86 43.87 20.26 44.32 19.5C44.77 18.74 44.99 17.9 44.99 16.99C44.99 16.08 44.77 15.24 44.32 14.48C43.87 13.72 43.27 13.12 42.51 12.67C41.75 12.22 40.91 12 40 12C39.08 12 38.25 12.22 37.48 12.67C36.72 13.12 36.12 13.72 35.67 14.48C35.22 15.24 35 16.08 35 16.99C35 17.9 35.22 18.74 35.67 19.5C36.12 20.26 36.72 20.86 37.48 21.31C38.25 21.76 39.08 21.98 40 21.98ZM40 12.98C40.72 12.98 41.38 13.16 42 13.52C42.62 13.88 43.11 14.37 43.47 14.98C43.83 15.6 44.01 16.27 44.01 16.99C44.01 17.71 43.83 18.38 43.47 18.99C43.11 19.61 42.62 20.1 42 20.46C41.38 20.82 40.72 21 40 21C39.27 21 38.61 20.82 37.99 20.46C37.37 20.1 36.88 19.61 36.52 18.99C36.16 18.38 35.98 17.71 35.98 16.99C35.98 16.27 36.16 15.6 36.52 14.98C36.88 14.37 37.37 13.88 37.99 13.52C38.61 13.16 39.27 12.98 40 12.98ZM40 23.98C38.49 23.98 37.13 24.3 35.91 24.96C34.69 25.62 33.74 26.5 33.05 27.62C32.35 28.79 32 30.08 32 31.49L32 32L48 32L48 31.49C48 30.08 47.64 28.79 46.94 27.62C46.25 26.5 45.3 25.62 44.08 24.96C42.86 24.3 41.5 23.98 40 23.98ZM32.98 30.99C33.06 29.85 33.42 28.83 34.05 27.91C34.68 27 35.51 26.29 36.55 25.76C37.58 25.24 38.73 24.98 40 24.98C41.26 24.98 42.41 25.24 43.44 25.76C44.48 26.29 45.3 27 45.93 27.91C46.55 28.83 46.91 29.85 47.01 30.99L32.98 30.99Z" fill="#000000" fill-opacity="1.000000" fill-rule="nonzero"/>
	</g>
</svg>
