<svg width="64.000000" height="41.000000" viewBox="0 0 64 41" fill="none" xmlns="http://www.w3.org/2000/svg" xmlns:xlink="http://www.w3.org/1999/xlink">
	<desc>
			Created with Pixso.
	</desc>
	<defs>
		<clipPath id="clip59_823">
			<rect id="akar-icons:shopping-bag" width="24.000000" height="24.000000" transform="translate(19.000000 0.000000)" fill="white" fill-opacity="0"/>
		</clipPath>
	</defs>
	<rect id="akar-icons:shopping-bag" width="24.000000" height="24.000000" transform="translate(19.000000 0.000000)" fill="#FFFFFF" fill-opacity="0"/>
	<g clip-path="url(#clip59_823)">
		<path id="Vector" d="M23.47 8.53C23.85 8.18 24.34 8 24.85 8L37.14 8C37.65 8 38.14 8.18 38.52 8.53C38.9 8.87 39.13 9.33 39.17 9.83L39.99 19.83C40.01 20.11 39.98 20.39 39.88 20.65C39.79 20.91 39.65 21.15 39.46 21.35C39.26 21.55 39.03 21.72 38.78 21.83C38.52 21.94 38.24 22 37.96 22L24.03 22C23.75 22 23.47 21.94 23.21 21.83C22.96 21.72 22.73 21.55 22.54 21.35C22.34 21.15 22.2 20.91 22.11 20.65C22.01 20.39 21.98 20.11 22 19.83L22.82 9.83C22.86 9.33 23.09 8.87 23.47 8.53Z" stroke="#181818" stroke-opacity="1.000000" stroke-width="1.000000" stroke-linejoin="round"/>
		<path id="Vector" d="M35 11L35 6C35 4.93 34.57 3.92 33.82 3.17C33.07 2.42 32.06 2 31 2C29.93 2 28.92 2.42 28.17 3.17C27.42 3.92 27 4.93 27 6L27 " stroke="#181818" stroke-opacity="1.000000" stroke-width="1.000000" stroke-linejoin="round" stroke-linecap="round"/>
	</g>
	<path id="Корзина" d="M14.25 38.5L12.98 38.5L9.98 34.49L8.91 34.49L8.91 38.5L7.85 38.5L7.85 29.77L8.91 29.77L8.91 33.55L9.37 33.55L12.86 29.77L14.13 29.77L10.6 33.6L14.25 38.5ZM20.92 35.26C20.92 37.29 19.73 38.63 17.96 38.63C16.18 38.63 14.99 37.29 14.99 35.26C14.99 33.21 16.18 31.87 17.96 31.87C19.73 31.87 20.92 33.21 20.92 35.26ZM23.76 40.95L22.75 40.95L22.75 31.95L23.73 31.95L23.73 32.99L23.85 32.99C24.07 32.65 24.46 31.87 25.74 31.87C27.39 31.87 28.53 33.18 28.53 35.24C28.53 37.32 27.39 38.63 25.75 38.63C24.49 38.63 24.07 37.85 23.85 37.49L23.76 37.49L23.76 40.95ZM32.41 38.63C31.02 38.63 29.99 37.9 29.96 36.83L31.03 36.83C31.08 37.42 31.61 37.73 32.4 37.73C33.2 37.73 33.86 37.42 33.86 36.67C33.86 36.02 33.35 35.58 32.55 35.58L31.42 35.58L31.42 34.68L32.55 34.68C33.35 34.68 33.72 34.27 33.72 33.72C33.72 33.14 33.29 32.75 32.53 32.75C31.76 32.75 31.2 33.13 31.17 33.67L30.11 33.67C30.15 32.62 31.12 31.87 32.48 31.87C33.86 31.87 34.75 32.65 34.75 33.69C34.75 34.43 34.28 34.88 33.66 35.07L33.66 35.14C34.39 35.19 34.88 35.85 34.88 36.67C34.88 37.87 33.84 38.63 32.41 38.63ZM55.22 37.61C55.01 38.04 54.41 38.65 53.27 38.65C52.03 38.65 51.04 37.91 51.04 36.64C51.04 35.14 52.37 34.87 53.58 34.71C54.77 34.56 55.27 34.6 55.27 34.12L55.27 34.08C55.27 33.24 54.81 32.75 53.89 32.75C52.93 32.75 52.4 33.26 52.18 33.74L51.23 33.4C51.74 32.21 52.86 31.87 53.85 31.87C54.69 31.87 56.27 32.1 56.27 34.18L56.27 38.5L55.27 38.5L55.27 37.61L55.22 37.61ZM37.6 31.95L37.6 37.01L40.76 31.95L41.92 31.95L41.92 38.5L40.91 38.5L40.91 33.43L37.78 38.5L36.6 38.5L36.6 31.95L37.6 31.95ZM44.06 31.95L45.06 31.95L45.06 34.76L48.2 34.76L48.2 31.95L49.21 31.95L49.21 38.5L48.2 38.5L48.2 35.7L45.06 35.7L45.06 38.5L44.06 38.5L44.06 31.95ZM16 35.26C16 36.57 16.61 37.73 17.96 37.73C19.3 37.73 19.92 36.57 19.92 35.26C19.92 33.95 19.3 32.77 17.96 32.77C16.61 32.77 16 33.95 16 35.26ZM25.62 32.77C24.39 32.77 23.74 33.76 23.74 35.22C23.74 36.71 24.41 37.73 25.62 37.73C26.88 37.73 27.53 36.62 27.53 35.22C27.53 33.84 26.9 32.77 25.62 32.77ZM52.05 36.69C52.05 37.39 52.63 37.75 53.43 37.75C54.62 37.75 55.27 36.95 55.27 36.12L55.27 35.21C55.1 35.41 53.95 35.53 53.53 35.58C52.74 35.68 52.05 35.92 52.05 36.69Z" fill="#000000" fill-opacity="1.000000" fill-rule="evenodd"/>
</svg>
