<svg width="19.000000" height="18.000000" viewBox="0 0 19 18" fill="none" xmlns="http://www.w3.org/2000/svg" xmlns:xlink="http://www.w3.org/1999/xlink">
	<desc>
			Created with Pixso.
	</desc>
	<defs/>
	<path id="Vector" d="M5.23 0.9C5.45 1.12 5.57 1.41 5.57 1.71L5.57 4C5.57 4.3 5.45 4.59 5.23 4.8C5.02 5.02 4.73 5.14 4.42 5.14C4.12 5.14 3.83 5.02 3.62 4.8C3.4 4.59 3.28 4.3 3.28 4L3.28 1.71C3.28 1.41 3.4 1.12 3.62 0.9C3.83 0.69 4.12 0.57 4.42 0.57C4.73 0.57 5.02 0.69 5.23 0.9ZM18.14 2.85L5.57 2.85M3.28 2.85L-0.15 2.85M5.23 12.33C5.45 12.54 5.57 12.83 5.57 13.14L5.57 15.42C5.57 15.73 5.45 16.02 5.23 16.23C5.02 16.45 4.73 16.57 4.42 16.57C4.12 16.57 3.83 16.45 3.62 16.23C3.4 16.02 3.28 15.73 3.28 15.42L3.28 13.14C3.28 12.83 3.4 12.54 3.62 12.33C3.83 12.12 4.12 12 4.42 12C4.73 12 5.02 12.12 5.23 12.33ZM18.14 14.28L5.57 14.28M3.28 14.28L-0.15 14.28M14.37 6.62C14.59 6.83 14.71 7.12 14.71 7.42L14.71 9.71C14.71 10.01 14.59 10.3 14.37 10.52C14.16 10.73 13.87 10.85 13.57 10.85C13.26 10.85 12.97 10.73 12.76 10.52C12.54 10.3 12.42 10.01 12.42 9.71L12.42 7.42C12.42 7.12 12.54 6.83 12.76 6.62C12.97 6.4 13.26 6.28 13.57 6.28C13.87 6.28 14.16 6.4 14.37 6.62ZM12.42 8.57L-0.15 8.57M18.14 8.57L14.71 " stroke="#262626" stroke-opacity="1.000000" stroke-width="1.200000" stroke-linejoin="round"/>
</svg>
